<?xml version="1.0" encoding="UTF-8"?>
<!DOCTYPE svg PUBLIC "-//W3C//DTD SVG 1.1//EN" "http://www.w3.org/Graphics/SVG/1.1/DTD/svg11.dtd">
<svg xmlns="http://www.w3.org/2000/svg" version="1.1" width="1080px" height="1080px" style="shape-rendering:geometricPrecision; text-rendering:geometricPrecision; image-rendering:optimizeQuality; fill-rule:evenodd; clip-rule:evenodd" xmlns:xlink="http://www.w3.org/1999/xlink">
<g><path style="opacity:0.219" fill="#fefefe" d="M 580.5,76.5 C 553.167,75.1667 525.833,75.1667 498.5,76.5C 511.817,75.1674 525.483,74.5007 539.5,74.5C 553.517,74.5007 567.183,75.1674 580.5,76.5 Z"/></g>
<g><path style="opacity:0.525" fill="#7b7a7a" d="M 580.5,76.5 C 581.167,76.5 581.833,76.5 582.5,76.5C 587.598,78.1567 592.932,79.49 598.5,80.5C 598.833,80.5 599.167,80.5 599.5,80.5C 600.5,81.1667 601.5,81.8333 602.5,82.5C 592.803,79.5158 582.803,77.6825 572.5,77C 547.476,76.2047 522.476,76.3714 497.5,77.5C 497.5,77.1667 497.5,76.8333 497.5,76.5C 497.833,76.5 498.167,76.5 498.5,76.5C 525.833,75.1667 553.167,75.1667 580.5,76.5 Z"/></g>
<g><path style="opacity:0.118" fill="#e8e8e8" d="M 497.5,76.5 C 497.5,76.8333 497.5,77.1667 497.5,77.5C 491.748,78.0213 486.082,79.0213 480.5,80.5C 482.025,78.9642 484.025,77.9642 486.5,77.5C 490.107,76.5108 493.774,76.1774 497.5,76.5 Z"/></g>
<g><path style="opacity:0.997" fill="#2a2828" d="M 602.5,82.5 C 637.412,95.7463 659.745,120.413 669.5,156.5C 669.658,160.841 670.658,164.841 672.5,168.5C 672.193,174.093 672.527,179.593 673.5,185C 733.612,197.042 770.612,232.875 784.5,292.5C 784.444,297.731 785.111,302.731 786.5,307.5C 786.5,308.5 786.5,309.5 786.5,310.5C 786.601,320.024 787.267,329.357 788.5,338.5C 788.5,339.833 788.5,341.167 788.5,342.5C 788.518,350.037 789.185,357.371 790.5,364.5C 790.5,367.167 790.5,369.833 790.5,372.5C 790.667,380.357 791.334,388.023 792.5,395.5C 792.5,397.833 792.5,400.167 792.5,402.5C 792.677,412.019 793.344,421.352 794.5,430.5C 794.5,433.167 794.5,435.833 794.5,438.5C 794.178,446.729 794.845,454.729 796.5,462.5C 796.5,465.167 796.5,467.833 796.5,470.5C 797.024,479.99 797.691,489.324 798.5,498.5C 798.5,499.167 798.5,499.833 798.5,500.5C 800.356,521.267 799.689,541.933 796.5,562.5C 780.296,616.036 744.963,649.369 690.5,662.5C 685.195,663.194 679.862,663.528 674.5,663.5C 584.166,663.667 493.833,663.5 403.5,663C 397.173,662.349 390.84,661.849 384.5,661.5C 378.013,659.212 371.346,657.545 364.5,656.5C 330.272,640.939 304.939,616.272 288.5,582.5C 288.106,578.653 287.106,574.986 285.5,571.5C 285.554,568.008 284.554,565.008 282.5,562.5C 282.5,562.167 282.5,561.833 282.5,561.5C 279.966,546.953 278.966,532.287 279.5,517.5C 279.5,515.5 279.5,513.5 279.5,511.5C 280.95,499.351 281.95,487.018 282.5,474.5C 282.5,470.5 282.5,466.5 282.5,462.5C 282.5,460.167 282.5,457.833 282.5,455.5C 283.565,448.683 284.232,441.683 284.5,434.5C 284.5,430.5 284.5,426.5 284.5,422.5C 285.921,414.709 286.587,406.709 286.5,398.5C 287.243,392.3 287.91,385.966 288.5,379.5C 289.947,370.037 290.613,360.37 290.5,350.5C 291.034,337.158 291.7,323.825 292.5,310.5C 292.511,303.758 293.178,297.092 294.5,290.5C 294.5,289.167 294.5,287.833 294.5,286.5C 295.586,286.38 296.253,285.713 296.5,284.5C 297.488,281.218 298.154,277.885 298.5,274.5C 298.5,274.167 298.5,273.833 298.5,273.5C 313.542,234.291 340.542,206.791 379.5,191C 384.012,189.205 388.679,188.039 393.5,187.5C 397.463,187.139 401.13,186.139 404.5,184.5C 404.833,184.5 405.167,184.5 405.5,184.5C 407.458,176.232 408.458,167.565 408.5,158.5C 417.035,126.63 435.702,102.63 464.5,86.5C 470.007,85.5509 475.007,83.5509 479.5,80.5C 479.833,80.5 480.167,80.5 480.5,80.5C 486.082,79.0213 491.748,78.0213 497.5,77.5C 522.476,76.3714 547.476,76.2047 572.5,77C 582.803,77.6825 592.803,79.5158 602.5,82.5 Z M 572.5,130.5 C 573.167,130.5 573.833,130.5 574.5,130.5C 581.65,134.075 588.983,137.741 596.5,141.5C 600.167,145.167 603.833,148.833 607.5,152.5C 610.293,158.208 613.293,163.541 616.5,168.5C 617.485,173.111 618.152,177.778 618.5,182.5C 565.833,182.5 513.167,182.5 460.5,182.5C 460.5,179.167 460.5,175.833 460.5,172.5C 463.576,165.701 467.243,159.034 471.5,152.5C 479.104,143.573 488.104,136.907 498.5,132.5C 523.092,130.62 547.759,129.953 572.5,130.5 Z M 412.5,290.5 C 427.833,290.5 443.167,290.5 458.5,290.5C 458.5,301.167 458.5,311.833 458.5,322.5C 459.576,344.318 470.242,359.318 490.5,367.5C 494.98,369.454 499.647,370.454 504.5,370.5C 527.167,370.5 549.833,370.5 572.5,370.5C 594.318,369.424 609.318,358.758 617.5,338.5C 618.48,335.914 618.813,333.247 618.5,330.5C 620.155,318.861 621.155,306.861 621.5,294.5C 622.934,293.412 623.934,292.078 624.5,290.5C 639.167,290.5 653.833,290.5 668.5,290.5C 669.167,292.5 670.5,293.833 672.5,294.5C 672.5,304.167 672.5,313.833 672.5,323.5C 672.5,323.833 672.5,324.167 672.5,324.5C 670.598,327.337 669.931,330.671 670.5,334.5C 670.5,335.833 670.5,337.167 670.5,338.5C 668.692,339.918 668.025,341.918 668.5,344.5C 668.5,345.167 668.5,345.833 668.5,346.5C 665.637,349.061 664.304,352.394 664.5,356.5C 660.018,364.686 655.018,372.686 649.5,380.5C 642.5,387.5 635.5,394.5 628.5,401.5C 619.708,406.554 611.041,411.554 602.5,416.5C 594.706,417.61 587.373,419.61 580.5,422.5C 554.167,422.5 527.833,422.5 501.5,422.5C 500.5,422.5 499.5,422.5 498.5,422.5C 491.627,419.61 484.294,417.61 476.5,416.5C 467.959,411.554 459.292,406.554 450.5,401.5C 439.344,391.686 429.677,380.686 421.5,368.5C 417.741,360.983 414.075,353.65 410.5,346.5C 410.5,346.167 410.5,345.833 410.5,345.5C 410.213,340.003 408.88,335.003 406.5,330.5C 406.5,330.167 406.5,329.833 406.5,329.5C 406.5,327.833 406.5,326.167 406.5,324.5C 406.5,315.167 406.5,305.833 406.5,296.5C 409.167,295.167 411.167,293.167 412.5,290.5 Z"/></g>
<g><path style="opacity:0.085" fill="#efefef" d="M 582.5,76.5 C 585.898,76.1796 589.232,76.513 592.5,77.5C 594.975,77.9642 596.975,78.9642 598.5,80.5C 592.932,79.49 587.598,78.1567 582.5,76.5 Z"/></g>
<g><path style="opacity:0.125" fill="#e2e2e2" d="M 479.5,80.5 C 475.007,83.5509 470.007,85.5509 464.5,86.5C 468.608,82.6237 473.608,80.6237 479.5,80.5 Z"/></g>
<g><path style="opacity:0.142" fill="#f0efef" d="M 464.5,86.5 C 435.702,102.63 417.035,126.63 408.5,158.5C 406.398,166.903 405.398,175.57 405.5,184.5C 405.167,184.5 404.833,184.5 404.5,184.5C 403.903,160.473 410.236,138.473 423.5,118.5C 433.978,106.68 445.645,96.3468 458.5,87.5C 460.396,86.5344 462.396,86.2011 464.5,86.5 Z"/></g>
<g><path style="opacity:0.143" fill="#ececec" d="M 599.5,80.5 C 601.924,80.1924 604.257,80.5258 606.5,81.5C 615.485,85.658 624.152,90.3246 632.5,95.5C 640.167,103.167 647.833,110.833 655.5,118.5C 659.5,126.5 663.5,134.5 667.5,142.5C 669.454,146.98 670.454,151.647 670.5,156.5C 670.167,156.5 669.833,156.5 669.5,156.5C 659.745,120.413 637.412,95.7463 602.5,82.5C 601.5,81.8333 600.5,81.1667 599.5,80.5 Z"/></g>
<g><path style="opacity:0.251" fill="#cdcccc" d="M 572.5,130.5 C 547.759,129.953 523.092,130.62 498.5,132.5C 496.784,132.629 495.117,132.962 493.5,133.5C 495.958,131.287 498.958,130.121 502.5,130C 526.004,129.17 549.337,129.337 572.5,130.5 Z"/></g>
<g><path style="opacity:0.107" fill="#ebeaea" d="M 498.5,132.5 C 488.104,136.907 479.104,143.573 471.5,152.5C 467.243,159.034 463.576,165.701 460.5,172.5C 463.389,157.226 471.389,145.393 484.5,137C 487.309,135.259 490.309,134.092 493.5,133.5C 495.117,132.962 496.784,132.629 498.5,132.5 Z"/></g>
<g><path style="opacity:0.107" fill="#ededed" d="M 574.5,130.5 C 594.171,134.154 607.837,145.154 615.5,163.5C 616.038,165.117 616.371,166.784 616.5,168.5C 613.293,163.541 610.293,158.208 607.5,152.5C 603.833,148.833 600.167,145.167 596.5,141.5C 588.983,137.741 581.65,134.075 574.5,130.5 Z"/></g>
<g><path style="opacity:0.133" fill="#fbfbfb" d="M 670.5,156.5 C 672.369,158.635 673.036,161.302 672.5,164.5C 671.629,161.997 670.963,159.33 670.5,156.5 Z"/></g>
<g><path style="opacity:0.475" fill="#8d8c8c" d="M 669.5,156.5 C 669.833,156.5 670.167,156.5 670.5,156.5C 670.963,159.33 671.629,161.997 672.5,164.5C 672.5,165.833 672.5,167.167 672.5,168.5C 670.658,164.841 669.658,160.841 669.5,156.5 Z"/></g>
<g><path style="opacity:1" fill="#4d4c4c" d="M 408.5,158.5 C 408.458,167.565 407.458,176.232 405.5,184.5C 405.398,175.57 406.398,166.903 408.5,158.5 Z"/></g>
<g><path style="opacity:0.251" fill="#a8a7a7" d="M 615.5,163.5 C 616.117,163.611 616.617,163.944 617,164.5C 619.001,170.678 619.834,177.012 619.5,183.5C 566.167,183.5 512.833,183.5 459.5,183.5C 459.185,179.629 459.518,175.962 460.5,172.5C 460.5,175.833 460.5,179.167 460.5,182.5C 513.167,182.5 565.833,182.5 618.5,182.5C 618.152,177.778 617.485,173.111 616.5,168.5C 616.371,166.784 616.038,165.117 615.5,163.5 Z"/></g>
<g><path style="opacity:0.525" fill="#7f7e7e" d="M 399.5,184.5 C 401.167,184.5 402.833,184.5 404.5,184.5C 401.13,186.139 397.463,187.139 393.5,187.5C 395.249,186.015 397.249,185.015 399.5,184.5 Z"/></g>
<g><path style="opacity:0.133" fill="#efefef" d="M 399.5,184.5 C 397.249,185.015 395.249,186.015 393.5,187.5C 388.679,188.039 384.012,189.205 379.5,191C 340.542,206.791 313.542,234.291 298.5,273.5C 298.192,271.076 298.526,268.743 299.5,266.5C 313.712,231.621 338.046,206.621 372.5,191.5C 381.243,188.064 390.243,185.731 399.5,184.5 Z"/></g>
<g><path style="opacity:0.137" fill="#ebeaea" d="M 672.5,168.5 C 674.446,173.396 675.113,178.729 674.5,184.5C 691.659,185.663 707.659,190.663 722.5,199.5C 753.696,218.185 774.029,245.185 783.5,280.5C 785.021,286.77 786.021,293.103 786.5,299.5C 785.833,297.167 785.167,294.833 784.5,292.5C 770.612,232.875 733.612,197.042 673.5,185C 672.527,179.593 672.193,174.093 672.5,168.5 Z"/></g>
<g><path style="opacity:0.122" fill="#e1e1e1" d="M 298.5,274.5 C 298.154,277.885 297.488,281.218 296.5,284.5C 296.253,285.713 295.586,286.38 294.5,286.5C 294.187,283.753 294.52,281.086 295.5,278.5C 296.057,276.668 297.057,275.335 298.5,274.5 Z"/></g>
<g><path style="opacity:0.204" fill="#adacac" d="M 459.5,322.5 C 459.167,322.5 458.833,322.5 458.5,322.5C 458.5,311.833 458.5,301.167 458.5,290.5C 443.167,290.5 427.833,290.5 412.5,290.5C 410.5,290.5 408.5,290.5 406.5,290.5C 406.5,292.5 406.5,294.5 406.5,296.5C 406.5,305.833 406.5,315.167 406.5,324.5C 405.505,313.346 405.172,302.012 405.5,290.5C 423.326,289.503 441.326,289.17 459.5,289.5C 459.5,300.5 459.5,311.5 459.5,322.5 Z"/></g>
<g><path style="opacity:0.214" fill="#fdfdfd" d="M 412.5,290.5 C 411.167,293.167 409.167,295.167 406.5,296.5C 406.5,294.5 406.5,292.5 406.5,290.5C 408.5,290.5 410.5,290.5 412.5,290.5 Z"/></g>
<g><path style="opacity:0.237" fill="#e5e5e5" d="M 619.5,290.5 C 621.167,290.5 622.833,290.5 624.5,290.5C 623.934,292.078 622.934,293.412 621.5,294.5C 621.155,306.861 620.155,318.861 618.5,330.5C 619.333,317.185 619.666,303.851 619.5,290.5 Z"/></g>
<g><path style="opacity:0.132" fill="#fbfbfb" d="M 668.5,290.5 C 669.833,290.5 671.167,290.5 672.5,290.5C 672.5,291.833 672.5,293.167 672.5,294.5C 670.5,293.833 669.167,292.5 668.5,290.5 Z"/></g>
<g><path style="opacity:0.225" fill="#9c9b9b" d="M 619.5,290.5 C 637.326,289.503 655.326,289.17 673.5,289.5C 673.828,301.012 673.495,312.346 672.5,323.5C 672.5,313.833 672.5,304.167 672.5,294.5C 672.5,293.167 672.5,291.833 672.5,290.5C 671.167,290.5 669.833,290.5 668.5,290.5C 653.833,290.5 639.167,290.5 624.5,290.5C 622.833,290.5 621.167,290.5 619.5,290.5 Z"/></g>
<g><path style="opacity:0.629" fill="#4b4a4a" d="M 405.5,290.5 C 405.172,302.012 405.505,313.346 406.5,324.5C 406.5,326.167 406.5,327.833 406.5,329.5C 405.732,328.737 405.232,327.737 405,326.5C 404.174,314.326 404.34,302.326 405.5,290.5 Z"/></g>
<g><path style="opacity:0.188" fill="#f7f7f7" d="M 294.5,290.5 C 293.178,297.092 292.511,303.758 292.5,310.5C 291.833,312.5 291.167,314.5 290.5,316.5C 290.171,310.463 290.504,304.463 291.5,298.5C 291.92,295.384 292.92,292.717 294.5,290.5 Z"/></g>
<g><path style="opacity:0.525" fill="#929191" d="M 784.5,292.5 C 785.167,294.833 785.833,297.167 786.5,299.5C 786.5,302.167 786.5,304.833 786.5,307.5C 785.111,302.731 784.444,297.731 784.5,292.5 Z"/></g>
<g><path style="opacity:0.229" fill="#d2d1d1" d="M 786.5,310.5 C 788.472,319.44 789.139,328.773 788.5,338.5C 787.267,329.357 786.601,320.024 786.5,310.5 Z"/></g>
<g><path style="opacity:0.235" fill="#c5c5c5" d="M 292.5,310.5 C 291.7,323.825 291.034,337.158 290.5,350.5C 289.833,354.5 289.167,358.5 288.5,362.5C 288.692,347.141 289.359,331.808 290.5,316.5C 291.167,314.5 291.833,312.5 292.5,310.5 Z"/></g>
<g><path style="opacity:0.123" fill="#ebeaea" d="M 672.5,324.5 C 672.5,326.833 672.5,329.167 672.5,331.5C 671.833,332.5 671.167,333.5 670.5,334.5C 669.931,330.671 670.598,327.337 672.5,324.5 Z"/></g>
<g><path style="opacity:0.106" fill="#e9e9e9" d="M 406.5,330.5 C 408.88,335.003 410.213,340.003 410.5,345.5C 408.252,340.858 406.919,335.858 406.5,330.5 Z"/></g>
<g><path style="opacity:0.115" fill="#e6e6e6" d="M 618.5,330.5 C 618.813,333.247 618.48,335.914 617.5,338.5C 609.318,358.758 594.318,369.424 572.5,370.5C 572.5,370.167 572.5,369.833 572.5,369.5C 595.389,365.392 610.722,352.392 618.5,330.5 Z"/></g>
<g><path style="opacity:0.095" fill="#eeeeee" d="M 670.5,338.5 C 670.405,340.786 669.738,342.786 668.5,344.5C 668.025,341.918 668.692,339.918 670.5,338.5 Z"/></g>
<g><path style="opacity:0.608" fill="#6e6d6d" d="M 672.5,331.5 C 672.048,335.163 671.548,338.83 671,342.5C 670.8,344.32 669.966,345.653 668.5,346.5C 668.5,345.833 668.5,345.167 668.5,344.5C 669.738,342.786 670.405,340.786 670.5,338.5C 670.5,337.167 670.5,335.833 670.5,334.5C 671.167,333.5 671.833,332.5 672.5,331.5 Z"/></g>
<g><path style="opacity:0.204" fill="#d7d6d6" d="M 668.5,346.5 C 668.23,350.358 666.897,353.691 664.5,356.5C 664.304,352.394 665.637,349.061 668.5,346.5 Z"/></g>
<g><path style="opacity:0.235" fill="#cdcccc" d="M 788.5,342.5 C 790.463,349.424 791.13,356.757 790.5,364.5C 789.185,357.371 788.518,350.037 788.5,342.5 Z"/></g>
<g><path style="opacity:0.085" fill="#ececec" d="M 458.5,322.5 C 458.833,322.5 459.167,322.5 459.5,322.5C 463.026,345.705 476.026,361.039 498.5,368.5C 500.5,369.167 502.5,369.833 504.5,370.5C 499.647,370.454 494.98,369.454 490.5,367.5C 470.242,359.318 459.576,344.318 458.5,322.5 Z"/></g>
<g><path style="opacity:0.204" fill="#747373" d="M 498.5,368.5 C 523.151,369.419 547.818,369.752 572.5,369.5C 572.5,369.833 572.5,370.167 572.5,370.5C 549.833,370.5 527.167,370.5 504.5,370.5C 502.5,369.833 500.5,369.167 498.5,368.5 Z"/></g>
<g><path style="opacity:0.104" fill="#d9d8d8" d="M 288.5,370.5 C 288.5,373.5 288.5,376.5 288.5,379.5C 287.91,385.966 287.243,392.3 286.5,398.5C 285.861,388.773 286.528,379.44 288.5,370.5 Z"/></g>
<g><path style="opacity:0.198" fill="#eaeaea" d="M 790.5,372.5 C 792.465,379.76 793.132,387.427 792.5,395.5C 791.334,388.023 790.667,380.357 790.5,372.5 Z"/></g>
<g><path style="opacity:1" fill="#514f4f" d="M 290.5,350.5 C 290.613,360.37 289.947,370.037 288.5,379.5C 288.5,376.5 288.5,373.5 288.5,370.5C 288.5,367.833 288.5,365.167 288.5,362.5C 289.167,358.5 289.833,354.5 290.5,350.5 Z"/></g>
<g><path style="opacity:0.108" fill="#ececec" d="M 410.5,346.5 C 414.075,353.65 417.741,360.983 421.5,368.5C 429.677,380.686 439.344,391.686 450.5,401.5C 459.292,406.554 467.959,411.554 476.5,416.5C 459.401,411.358 444.901,402.024 433,388.5C 422.592,376.015 415.092,362.015 410.5,346.5 Z"/></g>
<g><path style="opacity:0.094" fill="#ededed" d="M 664.5,356.5 C 653.301,386.367 632.634,406.367 602.5,416.5C 611.041,411.554 619.708,406.554 628.5,401.5C 635.5,394.5 642.5,387.5 649.5,380.5C 655.018,372.686 660.018,364.686 664.5,356.5 Z"/></g>
<g><path style="opacity:0.19" fill="#e7e7e7" d="M 286.5,398.5 C 286.587,406.709 285.921,414.709 284.5,422.5C 283.866,414.097 284.533,406.097 286.5,398.5 Z"/></g>
<g><path style="opacity:0.323" fill="#e2e2e2" d="M 792.5,402.5 C 794.472,411.44 795.139,420.773 794.5,430.5C 793.344,421.352 792.677,412.019 792.5,402.5 Z"/></g>
<g><path style="opacity:0.093" fill="#e5e5e5" d="M 476.5,416.5 C 484.294,417.61 491.627,419.61 498.5,422.5C 496.194,422.007 493.861,421.674 491.5,421.5C 485.932,421.2 480.932,419.533 476.5,416.5 Z"/></g>
<g><path style="opacity:0.142" fill="#e9e8e8" d="M 602.5,416.5 C 596.157,419.503 589.49,421.503 582.5,422.5C 581.833,422.5 581.167,422.5 580.5,422.5C 587.373,419.61 594.706,417.61 602.5,416.5 Z"/></g>
<g><path style="opacity:0.396" fill="#6f6e6e" d="M 491.5,421.5 C 493.861,421.674 496.194,422.007 498.5,422.5C 499.5,422.5 500.5,422.5 501.5,422.5C 501.5,422.833 501.5,423.167 501.5,423.5C 498.813,423.664 496.146,423.497 493.5,423C 492.584,422.722 491.918,422.222 491.5,421.5 Z"/></g>
<g><path style="opacity:0.608" fill="#858383" d="M 501.5,422.5 C 527.833,422.5 554.167,422.5 580.5,422.5C 581.167,422.5 581.833,422.5 582.5,422.5C 579.695,423.319 576.695,423.819 573.5,424C 549.33,424.83 525.33,424.663 501.5,423.5C 501.5,423.167 501.5,422.833 501.5,422.5 Z"/></g>
<g><path style="opacity:0.195" fill="#eaeaea" d="M 284.5,434.5 C 284.232,441.683 283.565,448.683 282.5,455.5C 281.872,448.087 282.539,441.087 284.5,434.5 Z"/></g>
<g><path style="opacity:0.525" fill="#b0afaf" d="M 794.5,438.5 C 796.467,446.097 797.134,454.097 796.5,462.5C 794.845,454.729 794.178,446.729 794.5,438.5 Z"/></g>
<g><path style="opacity:0.179" fill="#f2f1f1" d="M 282.5,462.5 C 282.5,466.5 282.5,470.5 282.5,474.5C 281.833,476.833 281.167,479.167 280.5,481.5C 279.877,474.745 280.544,468.412 282.5,462.5 Z"/></g>
<g><path style="opacity:0.229" fill="#e0dfdf" d="M 796.5,470.5 C 798.472,479.44 799.139,488.773 798.5,498.5C 797.691,489.324 797.024,479.99 796.5,470.5 Z"/></g>
<g><path style="opacity:0.235" fill="#a8a7a7" d="M 282.5,474.5 C 281.95,487.018 280.95,499.351 279.5,511.5C 279.295,505.122 279.628,498.789 280.5,492.5C 280.5,488.833 280.5,485.167 280.5,481.5C 281.167,479.167 281.833,476.833 282.5,474.5 Z"/></g>
<g><path style="opacity:0.196" fill="#f9f9f9" d="M 280.5,492.5 C 279.628,498.789 279.295,505.122 279.5,511.5C 279.5,513.5 279.5,515.5 279.5,517.5C 279.167,517.5 278.833,517.5 278.5,517.5C 277.865,508.766 278.532,500.433 280.5,492.5 Z"/></g>
<g><path style="opacity:0.325" fill="#d9d8d8" d="M 798.5,500.5 C 799.832,509.141 800.498,518.141 800.5,527.5C 800.167,536.5 799.833,545.5 799.5,554.5C 799.08,557.616 798.08,560.283 796.5,562.5C 799.689,541.933 800.356,521.267 798.5,500.5 Z"/></g>
<g><path style="opacity:0.235" fill="#b8b8b8" d="M 278.5,517.5 C 278.833,517.5 279.167,517.5 279.5,517.5C 278.966,532.287 279.966,546.953 282.5,561.5C 281.833,560.833 281.167,560.167 280.5,559.5C 278.686,545.598 278.019,531.598 278.5,517.5 Z"/></g>
<g><path style="opacity:0.6" fill="#6e6d6d" d="M 282.5,562.5 C 284.554,565.008 285.554,568.008 285.5,571.5C 284.054,568.746 283.054,565.746 282.5,562.5 Z"/></g>
<g><path style="opacity:0.157" fill="#f2f1f1" d="M 280.5,559.5 C 281.167,560.167 281.833,560.833 282.5,561.5C 282.5,561.833 282.5,562.167 282.5,562.5C 283.054,565.746 284.054,568.746 285.5,571.5C 287.106,574.986 288.106,578.653 288.5,582.5C 287.057,581.665 286.057,580.332 285.5,578.5C 283.003,572.35 281.337,566.017 280.5,559.5 Z"/></g>
<g><path style="opacity:0.141" fill="#ececec" d="M 288.5,582.5 C 304.939,616.272 330.272,640.939 364.5,656.5C 362.396,656.799 360.396,656.466 358.5,655.5C 326.951,641.951 303.951,619.617 289.5,588.5C 288.534,586.604 288.201,584.604 288.5,582.5 Z"/></g>
<g><path style="opacity:0.142" fill="#eaeaea" d="M 796.5,562.5 C 794.477,575.897 790.143,588.563 783.5,600.5C 764.59,631.39 737.59,651.723 702.5,661.5C 698.555,662.491 694.555,662.824 690.5,662.5C 744.963,649.369 780.296,616.036 796.5,562.5 Z"/></g>
<g><path style="opacity:0.325" fill="#dbdada" d="M 364.5,656.5 C 371.346,657.545 378.013,659.212 384.5,661.5C 384.5,661.833 384.5,662.167 384.5,662.5C 381.753,662.813 379.086,662.48 376.5,661.5C 372.055,660.368 368.055,658.701 364.5,656.5 Z"/></g>
<g><path style="opacity:0.157" fill="#f7f7f7" d="M 386.5,662.5 C 390.36,662.808 394.026,663.475 397.5,664.5C 393.351,665.08 389.684,664.414 386.5,662.5 Z"/></g>
<g><path style="opacity:0.235" fill="#6a6969" d="M 384.5,662.5 C 384.5,662.167 384.5,661.833 384.5,661.5C 390.84,661.849 397.173,662.349 403.5,663C 493.833,663.5 584.166,663.667 674.5,663.5C 674.5,663.833 674.5,664.167 674.5,664.5C 582.167,664.5 489.833,664.5 397.5,664.5C 394.026,663.475 390.36,662.808 386.5,662.5C 385.833,662.5 385.167,662.5 384.5,662.5 Z"/></g>
<g><path style="opacity:0.235" fill="#dadada" d="M 690.5,662.5 C 685.604,664.446 680.271,665.113 674.5,664.5C 674.5,664.167 674.5,663.833 674.5,663.5C 679.862,663.528 685.195,663.194 690.5,662.5 Z"/></g>
<g><path style="opacity:0.233" fill="#fefffe" d="M 454.5,798.5 C 453.833,778.833 453.167,759.167 452.5,739.5C 441.833,739.5 431.167,739.5 420.5,739.5C 419.501,804.998 419.168,870.665 419.5,936.5C 418.501,870.669 418.168,804.669 418.5,738.5C 430.5,738.5 442.5,738.5 454.5,738.5C 454.5,758.5 454.5,778.5 454.5,798.5 Z"/></g>
<g><path style="opacity:0.987" fill="#2a2828" d="M 420.5,739.5 C 431.167,739.5 441.833,739.5 452.5,739.5C 452.5,759.5 452.5,779.5 452.5,799.5C 468.167,799.5 483.833,799.5 499.5,799.5C 526.053,802.552 541.886,817.218 547,843.5C 547.5,874.165 547.667,904.832 547.5,935.5C 536.5,935.5 525.5,935.5 514.5,935.5C 514.667,907.498 514.5,879.498 514,851.5C 512.132,840.708 505.966,834.042 495.5,831.5C 481.343,830.504 467.01,830.171 452.5,830.5C 452.5,865.5 452.5,900.5 452.5,935.5C 441.833,935.5 431.167,935.5 420.5,935.5C 420.5,870.167 420.5,804.833 420.5,739.5 Z"/></g>
<g><path style="opacity:0.963" fill="#2a2828" d="M 306.5,740.5 C 316.833,740.5 327.167,740.5 337.5,740.5C 356.73,742.14 375.396,746.64 393.5,754C 390.268,763.863 386.934,773.697 383.5,783.5C 360.384,775.057 336.717,771.39 312.5,772.5C 311.833,772.5 311.167,772.5 310.5,772.5C 291.488,775.578 284.321,786.244 289,804.5C 292.269,807.883 296.103,810.383 300.5,812C 318.118,816.821 335.785,821.488 353.5,826C 391.205,837.241 404.372,861.741 393,899.5C 383.114,919.035 367.281,930.535 345.5,934C 341.83,934.548 338.163,935.048 334.5,935.5C 321.82,935.561 309.153,935.228 296.5,934.5C 278.45,931.249 260.95,925.915 244,918.5C 246,907.692 248.833,897.025 252.5,886.5C 253.167,886.5 253.833,886.5 254.5,886.5C 280.735,899.646 308.402,904.979 337.5,902.5C 337.833,902.5 338.167,902.5 338.5,902.5C 350.634,901.191 358.8,894.858 363,883.5C 363.805,880.304 363.638,877.304 362.5,874.5C 360.519,867.014 355.852,861.847 348.5,859C 346.051,858.275 343.717,857.275 341.5,856C 323.86,851.872 306.193,847.872 288.5,844C 268.815,837.497 256.815,824.33 252.5,804.5C 252.5,799.167 252.5,793.833 252.5,788.5C 256.593,767.223 268.926,752.723 289.5,745C 295.175,743 300.842,741.5 306.5,740.5 Z"/></g>
<g><path style="opacity:0.172" fill="#eeeeee" d="M 306.5,740.5 C 300.842,741.5 295.175,743 289.5,745C 268.926,752.723 256.593,767.223 252.5,788.5C 252.324,773.184 258.324,760.851 270.5,751.5C 275.833,748.833 281.167,746.167 286.5,743.5C 293.014,741.414 299.68,740.414 306.5,740.5 Z"/></g>
<g><path style="opacity:0.234" fill="#aaaaaa" d="M 895.5,744.5 C 895.5,808.167 895.5,871.833 895.5,935.5C 906.5,935.5 917.5,935.5 928.5,935.5C 928.5,935.833 928.5,936.167 928.5,936.5C 917.167,936.5 905.833,936.5 894.5,936.5C 894.168,872.331 894.501,808.331 895.5,744.5 Z"/></g>
<g><path style="opacity:0.971" fill="#2a2828" d="M 895.5,744.5 C 919.833,744.5 944.167,744.5 968.5,744.5C 986.126,745.655 1002.13,751.489 1016.5,762C 1036.24,781.852 1042.07,805.352 1034,832.5C 1022.28,859.132 1001.78,873.632 972.5,876C 957.837,876.5 943.17,876.667 928.5,876.5C 928.5,896.167 928.5,915.833 928.5,935.5C 917.5,935.5 906.5,935.5 895.5,935.5C 895.5,871.833 895.5,808.167 895.5,744.5 Z M 976.5,778.5 C 980.045,781.285 984.045,783.618 988.5,785.5C 992.167,789.167 995.833,792.833 999.5,796.5C 1003.95,806.872 1003.29,816.872 997.5,826.5C 993.833,830.167 990.167,833.833 986.5,837.5C 980.881,839.687 975.548,842.02 970.5,844.5C 957.167,844.5 943.833,844.5 930.5,844.5C 930.5,822.5 930.5,800.5 930.5,778.5C 945.833,778.5 961.167,778.5 976.5,778.5 Z"/></g>
<g><path style="opacity:0.222" fill="#d4d4d4" d="M 42.5,749.5 C 53.6544,748.505 64.9877,748.172 76.5,748.5C 77.1444,760.216 76.4777,771.549 74.5,782.5C 74.5,771.5 74.5,760.5 74.5,749.5C 63.8333,749.5 53.1667,749.5 42.5,749.5 Z"/></g>
<g><path style="opacity:0.933" fill="#2c2a2a" d="M 42.5,749.5 C 53.1667,749.5 63.8333,749.5 74.5,749.5C 74.5,760.5 74.5,771.5 74.5,782.5C 63.8333,782.5 53.1667,782.5 42.5,782.5C 42.5,771.5 42.5,760.5 42.5,749.5 Z"/></g>
<g><path style="opacity:0.185" fill="#e8e7e7" d="M 337.5,740.5 C 344.532,740.17 351.532,740.503 358.5,741.5C 370.692,743.901 382.692,746.901 394.5,750.5C 394.82,753.898 394.487,757.232 393.5,760.5C 391.159,768.537 388.826,776.537 386.5,784.5C 371.859,781.508 357.193,778.508 342.5,775.5C 332.573,773.676 322.573,772.676 312.5,772.5C 336.717,771.39 360.384,775.057 383.5,783.5C 386.934,773.697 390.268,763.863 393.5,754C 375.396,746.64 356.73,742.14 337.5,740.5 Z"/></g>
<g><path style="opacity:0.479" fill="#c8c8c8" d="M 969.5,777.5 C 956.167,777.5 942.833,777.5 929.5,777.5C 929.5,799.833 929.5,822.167 929.5,844.5C 928.503,822.006 928.169,799.339 928.5,776.5C 942.344,776.171 956.01,776.504 969.5,777.5 Z"/></g>
<g><path style="opacity:0.197" fill="#fbfbfb" d="M 969.5,777.5 C 972.059,777.198 974.393,777.532 976.5,778.5C 961.167,778.5 945.833,778.5 930.5,778.5C 930.5,800.5 930.5,822.5 930.5,844.5C 930.167,844.5 929.833,844.5 929.5,844.5C 929.5,822.167 929.5,799.833 929.5,777.5C 942.833,777.5 956.167,777.5 969.5,777.5 Z"/></g>
<g><path style="opacity:0.168" fill="#eeeeee" d="M 620.5,792.5 C 691.884,788.887 720.884,822.22 707.5,892.5C 703.405,903.706 697.071,913.373 688.5,921.5C 673.622,932.347 656.955,937.347 638.5,936.5C 598.767,937.754 574.434,919.088 565.5,880.5C 559.604,850.53 567.937,825.53 590.5,805.5C 600.234,799.952 610.234,795.619 620.5,792.5 Z M 628.5,826.5 C 634.5,826.5 640.5,826.5 646.5,826.5C 649.538,828.32 652.871,829.986 656.5,831.5C 663.683,837.342 669.35,844.342 673.5,852.5C 674.833,860.5 674.833,868.5 673.5,876.5C 668.6,886.067 661.6,893.734 652.5,899.5C 634.31,906.102 619.31,901.769 607.5,886.5C 605.618,882.045 603.285,878.045 600.5,874.5C 600.5,867.833 600.5,861.167 600.5,854.5C 603.285,850.955 605.618,846.955 607.5,842.5C 610.5,839.5 613.5,836.5 616.5,833.5C 620.955,831.618 624.955,829.285 628.5,826.5 Z"/></g>
<g><path style="opacity:0.965" fill="#2b2929" d="M 628.5,793.5 C 647.499,792.329 665.165,796.495 681.5,806C 705.792,825.535 714.626,850.701 708,881.5C 698.11,916.704 674.777,934.704 638,935.5C 599.728,934.547 576.061,915.547 567,878.5C 562.001,831.376 582.501,803.043 628.5,793.5 Z M 628.5,826.5 C 634.5,826.5 640.5,826.5 646.5,826.5C 649.538,828.32 652.871,829.986 656.5,831.5C 663.683,837.342 669.35,844.342 673.5,852.5C 674.833,860.5 674.833,868.5 673.5,876.5C 668.6,886.067 661.6,893.734 652.5,899.5C 634.31,906.102 619.31,901.769 607.5,886.5C 605.618,882.045 603.285,878.045 600.5,874.5C 600.5,867.833 600.5,861.167 600.5,854.5C 603.285,850.955 605.618,846.955 607.5,842.5C 610.5,839.5 613.5,836.5 616.5,833.5C 620.955,831.618 624.955,829.285 628.5,826.5 Z"/></g>
<g><path style="opacity:0.234" fill="#f2f2f2" d="M 224.5,848.5 C 224.167,848.5 223.833,848.5 223.5,848.5C 221.124,819.957 205.79,803.457 177.5,799C 150.502,798.5 123.502,798.333 96.5,798.5C 96.5,843.833 96.5,889.167 96.5,934.5C 107.321,935.495 118.321,935.828 129.5,935.5C 129.5,900.5 129.5,865.5 129.5,830.5C 131.833,830.5 134.167,830.5 136.5,830.5C 135.257,832.753 133.59,834.753 131.5,836.5C 130.5,869.827 130.167,903.16 130.5,936.5C 118.5,936.5 106.5,936.5 94.5,936.5C 94.5,889.833 94.5,843.167 94.5,796.5C 123.174,796.167 151.841,796.5 180.5,797.5C 209.11,802.445 223.777,819.445 224.5,848.5 Z"/></g>
<g><path style="opacity:0.953" fill="#292827" d="M 74.5,798.5 C 74.5,843.833 74.5,889.167 74.5,934.5C 63.8333,934.5 53.1667,934.5 42.5,934.5C 42.5,889.167 42.5,843.833 42.5,798.5C 53.1667,798.5 63.8333,798.5 74.5,798.5 Z"/></g>
<g><path style="opacity:0.231" fill="#fefffe" d="M 75.5,798.5 C 76.4988,844.33 76.8321,890.33 76.5,936.5C 64.9877,936.828 53.6544,936.495 42.5,935.5C 53.5,935.5 64.5,935.5 75.5,935.5C 75.5,889.833 75.5,844.167 75.5,798.5 Z"/></g>
<g><path style="opacity:0.982" fill="#2a2828" d="M 223.5,848.5 C 223.5,877.167 223.5,905.833 223.5,934.5C 212.833,934.5 202.167,934.5 191.5,934.5C 191.831,906.662 191.498,878.995 190.5,851.5C 190.5,851.167 190.5,850.833 190.5,850.5C 188.833,838.833 182.167,832.167 170.5,830.5C 170.167,830.5 169.833,830.5 169.5,830.5C 156.01,829.504 142.344,829.171 128.5,829.5C 128.5,864.5 128.5,899.5 128.5,934.5C 117.833,934.5 107.167,934.5 96.5,934.5C 96.5,889.167 96.5,843.833 96.5,798.5C 123.502,798.333 150.502,798.5 177.5,799C 205.79,803.457 221.124,819.957 223.5,848.5 Z M 176.5,886.5 C 175.794,897.553 170.127,904.886 159.5,908.5C 147.142,904.84 142.476,896.84 145.5,884.5C 148.5,881.5 151.5,878.5 154.5,875.5C 157.833,874.167 161.167,874.167 164.5,875.5C 168.24,879.579 172.24,883.246 176.5,886.5 Z"/></g>
<g><path style="opacity:0.238" fill="#898989" d="M 452.5,739.5 C 453.167,759.167 453.833,778.833 454.5,798.5C 469.5,798.5 484.5,798.5 499.5,798.5C 499.5,798.833 499.5,799.167 499.5,799.5C 483.833,799.5 468.167,799.5 452.5,799.5C 452.5,779.5 452.5,759.5 452.5,739.5 Z"/></g>
<g><path style="opacity:0.173" fill="#e5e5e5" d="M 499.5,799.5 C 499.5,799.167 499.5,798.833 499.5,798.5C 524.997,799.241 540.997,811.907 547.5,836.5C 548.5,869.827 548.833,903.16 548.5,936.5C 537.167,936.5 525.833,936.5 514.5,936.5C 514.5,936.167 514.5,935.833 514.5,935.5C 525.5,935.5 536.5,935.5 547.5,935.5C 547.667,904.832 547.5,874.165 547,843.5C 541.886,817.218 526.053,802.552 499.5,799.5 Z"/></g>
<g><path style="opacity:0.951" fill="#2a2828" d="M 811.5,798.5 C 849.055,805.403 868.389,828.07 869.5,866.5C 869.094,906.89 849.094,930.223 809.5,936.5C 799.833,936.5 790.167,936.5 780.5,936.5C 776.343,935.551 772.01,934.884 767.5,934.5C 767.5,953.833 767.5,973.167 767.5,992.5C 756.5,992.5 745.5,992.5 734.5,992.5C 734.5,927.833 734.5,863.167 734.5,798.5C 760.167,798.5 785.833,798.5 811.5,798.5 Z M 810.5,830.5 C 822.78,837.442 831.447,847.442 836.5,860.5C 836.5,865.833 836.5,871.167 836.5,876.5C 834.692,877.918 834.025,879.918 834.5,882.5C 828.123,891.202 820.123,898.202 810.5,903.5C 805.5,903.833 800.5,904.167 795.5,904.5C 786.476,903.965 777.476,903.299 768.5,902.5C 768.167,879.824 768.5,857.157 769.5,834.5C 770.5,833.5 771.5,832.5 772.5,831.5C 785.149,830.501 797.816,830.168 810.5,830.5 Z"/></g>
<g><path style="opacity:0.157" fill="#ececec" d="M 811.5,798.5 C 823.478,797.825 834.478,800.825 844.5,807.5C 863.848,823.204 872.514,843.537 870.5,868.5C 871.971,896.565 860.638,917.565 836.5,931.5C 827.906,935.379 818.906,937.046 809.5,936.5C 849.094,930.223 869.094,906.89 869.5,866.5C 868.389,828.07 849.055,805.403 811.5,798.5 Z"/></g>
<g><path style="opacity:0.136" fill="#ecebeb" d="M 976.5,778.5 C 998.513,784.039 1007.35,798.039 1003,820.5C 997.18,835.171 986.347,843.171 970.5,844.5C 975.548,842.02 980.881,839.687 986.5,837.5C 990.167,833.833 993.833,830.167 997.5,826.5C 1003.29,816.872 1003.95,806.872 999.5,796.5C 995.833,792.833 992.167,789.167 988.5,785.5C 984.045,783.618 980.045,781.285 976.5,778.5 Z"/></g>
<g><path style="opacity:0.153" fill="#eeeeee" d="M 252.5,804.5 C 256.815,824.33 268.815,837.497 288.5,844C 306.193,847.872 323.86,851.872 341.5,856C 343.717,857.275 346.051,858.275 348.5,859C 355.852,861.847 360.519,867.014 362.5,874.5C 358.101,867.783 352.101,862.783 344.5,859.5C 325.295,854.326 305.962,849.659 286.5,845.5C 279.383,843.045 272.716,839.711 266.5,835.5C 257.195,827.225 252.528,816.892 252.5,804.5 Z"/></g>
<g><path style="opacity:0.534" fill="#7d7c7c" d="M 169.5,830.5 C 158.5,830.5 147.5,830.5 136.5,830.5C 134.167,830.5 131.833,830.5 129.5,830.5C 129.5,865.5 129.5,900.5 129.5,935.5C 118.321,935.828 107.321,935.495 96.5,934.5C 107.167,934.5 117.833,934.5 128.5,934.5C 128.5,899.5 128.5,864.5 128.5,829.5C 142.344,829.171 156.01,829.504 169.5,830.5 Z"/></g>
<g><path style="opacity:0.156" fill="#f1f1f1" d="M 810.5,830.5 C 826.572,833.927 835.239,843.927 836.5,860.5C 831.447,847.442 822.78,837.442 810.5,830.5 Z"/></g>
<g><path style="opacity:0.53" fill="#b2b2b2" d="M 495.5,831.5 C 481.5,831.5 467.5,831.5 453.5,831.5C 453.832,866.337 453.498,901.004 452.5,935.5C 452.5,900.5 452.5,865.5 452.5,830.5C 467.01,830.171 481.343,830.504 495.5,831.5 Z"/></g>
<g><path style="opacity:0.156" fill="#ededed" d="M 170.5,830.5 C 182.167,832.167 188.833,838.833 190.5,850.5C 188.383,848.3 186.716,845.633 185.5,842.5C 183.167,840.167 180.833,837.833 178.5,835.5C 175.367,834.284 172.7,832.617 170.5,830.5 Z"/></g>
<g><path style="opacity:0.116" fill="#f2f1f1" d="M 628.5,826.5 C 624.955,829.285 620.955,831.618 616.5,833.5C 613.5,836.5 610.5,839.5 607.5,842.5C 605.618,846.955 603.285,850.955 600.5,854.5C 602.214,845.255 606.88,837.755 614.5,832C 618.863,829.316 623.53,827.482 628.5,826.5 Z"/></g>
<g><path style="opacity:0.124" fill="#eaeaea" d="M 968.5,744.5 C 990.836,743.387 1009.84,750.72 1025.5,766.5C 1034.79,779.65 1039.12,794.317 1038.5,810.5C 1038.8,838.893 1026.14,859.226 1000.5,871.5C 992.807,874.731 984.807,876.731 976.5,877.5C 961.181,878.499 945.848,878.833 930.5,878.5C 931.154,898.196 930.488,917.529 928.5,936.5C 928.5,936.167 928.5,935.833 928.5,935.5C 928.5,915.833 928.5,896.167 928.5,876.5C 943.17,876.667 957.837,876.5 972.5,876C 1001.78,873.632 1022.28,859.132 1034,832.5C 1042.07,805.352 1036.24,781.852 1016.5,762C 1002.13,751.489 986.126,745.655 968.5,744.5 Z"/></g>
<g><path style="opacity:0.37" fill="#fcfcfc" d="M 495.5,831.5 C 505.966,834.042 512.132,840.708 514,851.5C 514.5,879.498 514.667,907.498 514.5,935.5C 514.5,935.833 514.5,936.167 514.5,936.5C 512.837,907.511 511.837,878.178 511.5,848.5C 504.331,834.584 492.998,829.251 477.5,832.5C 471.167,832.833 464.833,833.167 458.5,833.5C 457.5,834.5 456.5,835.5 455.5,836.5C 455.163,870.177 454.163,903.51 452.5,936.5C 452.5,936.167 452.5,935.833 452.5,935.5C 453.498,901.004 453.832,866.337 453.5,831.5C 467.5,831.5 481.5,831.5 495.5,831.5 Z"/></g>
<g><path style="opacity:0.719" fill="#302e2e" d="M 155.5,868.5 C 157.833,868.5 160.167,868.5 162.5,868.5C 174.182,870.182 180.849,876.849 182.5,888.5C 182.5,890.167 182.5,891.833 182.5,893.5C 179.194,909.683 169.194,916.183 152.5,913C 139.699,907.338 134.866,897.505 138,883.5C 141.318,875.334 147.151,870.334 155.5,868.5 Z M 176.5,886.5 C 172.24,883.246 168.24,879.579 164.5,875.5C 161.167,874.167 157.833,874.167 154.5,875.5C 151.5,878.5 148.5,881.5 145.5,884.5C 142.476,896.84 147.142,904.84 159.5,908.5C 170.127,904.886 175.794,897.553 176.5,886.5 Z"/></g>
<g><path style="opacity:0.14" fill="#e9e8e8" d="M 162.5,868.5 C 176.5,867.833 183.167,874.5 182.5,888.5C 180.849,876.849 174.182,870.182 162.5,868.5 Z"/></g>
<g><path style="opacity:0.215" fill="#f0f0f0" d="M 176.5,886.5 C 179.038,897.334 175.038,904.834 164.5,909C 147.162,909.987 139.996,901.821 143,884.5C 147.759,874.458 155.592,870.958 166.5,874C 172.268,876.263 175.601,880.43 176.5,886.5 Z M 176.5,886.5 C 172.24,883.246 168.24,879.579 164.5,875.5C 161.167,874.167 157.833,874.167 154.5,875.5C 151.5,878.5 148.5,881.5 145.5,884.5C 142.476,896.84 147.142,904.84 159.5,908.5C 170.127,904.886 175.794,897.553 176.5,886.5 Z"/></g>
<g><path style="opacity:0.157" fill="#efefef" d="M 646.5,826.5 C 661.883,829.441 671.717,838.441 676,853.5C 679.433,890.067 662.933,906.567 626.5,903C 612.034,898.705 603.368,889.205 600.5,874.5C 603.285,878.045 605.618,882.045 607.5,886.5C 619.31,901.769 634.31,906.102 652.5,899.5C 661.6,893.734 668.6,886.067 673.5,876.5C 674.833,868.5 674.833,860.5 673.5,852.5C 669.35,844.342 663.683,837.342 656.5,831.5C 652.871,829.986 649.538,828.32 646.5,826.5 Z"/></g>
<g><path style="opacity:0.093" fill="#e9e9e9" d="M 836.5,876.5 C 836.741,878.898 836.074,880.898 834.5,882.5C 834.025,879.918 834.692,877.918 836.5,876.5 Z"/></g>
<g><path style="opacity:0.16" fill="#f0f0f0" d="M 362.5,874.5 C 363.638,877.304 363.805,880.304 363,883.5C 358.8,894.858 350.634,901.191 338.5,902.5C 341.184,899.914 344.517,898.247 348.5,897.5C 352.167,893.833 355.833,890.167 359.5,886.5C 361.756,882.809 362.756,878.809 362.5,874.5 Z"/></g>
<g><path style="opacity:0.087" fill="#fefffe" d="M 190.5,884.5 C 190.5,890.5 190.5,896.5 190.5,902.5C 189.184,899.913 188.517,896.913 188.5,893.5C 188.517,890.087 189.184,887.087 190.5,884.5 Z"/></g>
<g><path style="opacity:0.155" fill="#ececec" d="M 810.5,830.5 C 797.816,830.168 785.149,830.501 772.5,831.5C 771.5,832.5 770.5,833.5 769.5,834.5C 768.5,857.157 768.167,879.824 768.5,902.5C 777.476,903.299 786.476,903.965 795.5,904.5C 800.5,904.167 805.5,903.833 810.5,903.5C 820.123,898.202 828.123,891.202 834.5,882.5C 831.364,894.468 823.697,901.968 811.5,905C 797.082,905.988 782.748,905.488 768.5,903.5C 767.5,878.842 767.167,854.176 767.5,829.5C 782.01,829.171 796.343,829.504 810.5,830.5 Z"/></g>
<g><path style="opacity:0.163" fill="#ededed" d="M 310.5,772.5 C 307.816,775.086 304.483,776.753 300.5,777.5C 283.373,791.171 284.706,802.504 304.5,811.5C 324.78,815.822 344.78,821.155 364.5,827.5C 369.833,830.167 375.167,832.833 380.5,835.5C 384.167,839.167 387.833,842.833 391.5,846.5C 398.082,861.172 400.082,876.505 397.5,892.5C 392.908,911.763 381.242,924.763 362.5,931.5C 353.499,935.084 344.166,936.751 334.5,936.5C 334.5,936.167 334.5,935.833 334.5,935.5C 338.163,935.048 341.83,934.548 345.5,934C 367.281,930.535 383.114,919.035 393,899.5C 404.372,861.741 391.205,837.241 353.5,826C 335.785,821.488 318.118,816.821 300.5,812C 296.103,810.383 292.269,807.883 289,804.5C 284.321,786.244 291.488,775.578 310.5,772.5 Z"/></g>
<g><path style="opacity:0.184" fill="#ebebeb" d="M 254.5,886.5 C 273.369,893.051 292.702,898.051 312.5,901.5C 320.807,902.498 329.14,902.831 337.5,902.5C 308.402,904.979 280.735,899.646 254.5,886.5 Z"/></g>
<g><path style="opacity:0.146" fill="#ededed" d="M 155.5,868.5 C 147.151,870.334 141.318,875.334 138,883.5C 134.866,897.505 139.699,907.338 152.5,913C 169.194,916.183 179.194,909.683 182.5,893.5C 183.193,909.469 175.527,916.469 159.5,914.5C 155.167,914.167 150.833,913.833 146.5,913.5C 143.5,910.5 140.5,907.5 137.5,904.5C 136.864,897.109 135.864,889.776 134.5,882.5C 137.997,872.683 144.997,868.016 155.5,868.5 Z"/></g>
<g><path style="opacity:0.165" fill="#ececec" d="M 252.5,886.5 C 248.833,897.025 246,907.692 244,918.5C 260.95,925.915 278.45,931.249 296.5,934.5C 278.021,932.797 260.354,928.131 243.5,920.5C 242.167,916.5 242.167,912.5 243.5,908.5C 245.905,901.953 247.905,895.286 249.5,888.5C 250.265,887.388 251.265,886.721 252.5,886.5 Z"/></g>
<g><path style="opacity:0.512" fill="#8c8b8b" d="M 74.5,798.5 C 74.8333,798.5 75.1667,798.5 75.5,798.5C 75.5,844.167 75.5,889.833 75.5,935.5C 64.5,935.5 53.5,935.5 42.5,935.5C 42.5,935.167 42.5,934.833 42.5,934.5C 53.1667,934.5 63.8333,934.5 74.5,934.5C 74.5,889.167 74.5,843.833 74.5,798.5 Z"/></g>
<g><path style="opacity:0.52" fill="#8b8a8a" d="M 223.5,848.5 C 223.833,848.5 224.167,848.5 224.5,848.5C 224.5,877.5 224.5,906.5 224.5,935.5C 213.321,935.828 202.321,935.495 191.5,934.5C 202.167,934.5 212.833,934.5 223.5,934.5C 223.5,905.833 223.5,877.167 223.5,848.5 Z"/></g>
<g><path style="opacity:0.201" fill="#cbcbcb" d="M 296.5,934.5 C 309.153,935.228 321.82,935.561 334.5,935.5C 334.5,935.833 334.5,936.167 334.5,936.5C 321.456,937.147 308.789,936.48 296.5,934.5 Z"/></g>
<g><path style="opacity:0.239" fill="#fbfbfb" d="M 780.5,936.5 C 776.5,936.5 772.5,936.5 768.5,936.5C 768.83,955.341 768.497,974.007 767.5,992.5C 767.5,973.167 767.5,953.833 767.5,934.5C 772.01,934.884 776.343,935.551 780.5,936.5 Z"/></g>
<g><path style="opacity:0.222" fill="#ececec" d="M 190.5,851.5 C 191.498,878.995 191.831,906.662 191.5,934.5C 202.321,935.495 213.321,935.828 224.5,935.5C 213.346,936.495 202.012,936.828 190.5,936.5C 190.5,925.167 190.5,913.833 190.5,902.5C 190.5,896.5 190.5,890.5 190.5,884.5C 190.5,873.5 190.5,862.5 190.5,851.5 Z"/></g>
<g><path style="opacity:0.235" fill="#919090" d="M 420.5,739.5 C 420.5,804.833 420.5,870.167 420.5,935.5C 431.167,935.5 441.833,935.5 452.5,935.5C 452.5,935.833 452.5,936.167 452.5,936.5C 441.5,936.5 430.5,936.5 419.5,936.5C 419.168,870.665 419.501,804.998 420.5,739.5 Z"/></g>
</svg>
